<?xml version="1.0" encoding="utf-8"?>
<!-- Generator: Adobe Illustrator 27.2.0, SVG Export Plug-In . SVG Version: 6.00 Build 0)  -->
<svg version="1.1" id="Capa_1" xmlns="http://www.w3.org/2000/svg" xmlns:xlink="http://www.w3.org/1999/xlink" x="0px" y="0px"
	 viewBox="0 0 1920 1920" style="enable-background:new 0 0 1920 1920;" xml:space="preserve">
<style type="text/css">
	.st0{fill:#283350;}
</style>
<g>
	<g>
		<g>
			<path class="st0" d="M1334.02,499.57c-46.37,0-83.97,37.6-83.97,83.97c0,46.38,37.6,83.98,83.97,83.98
				c46.38,0,83.98-37.6,83.98-83.98C1418,537.16,1380.4,499.57,1334.02,499.57z"/>
			<path class="st0" d="M960.7,607.25c-194.51,0-352.75,158.24-352.75,352.75c0,194.5,158.25,352.75,352.75,352.75
				c194.5,0,352.75-158.25,352.75-352.75C1313.44,765.49,1155.2,607.25,960.7,607.25z M960.7,1185.96
				c-124.6,0-225.97-101.36-225.97-225.96S836.1,734.04,960.7,734.04c124.59,0,225.95,101.35,225.95,225.96
				S1085.29,1185.96,960.7,1185.96z"/>
			<path class="st0" d="M1240.74,1676.19H668.87c-237.23,0-430.24-193-430.24-430.24v-571.9c0-237.24,193-430.24,430.24-430.24
				h571.87c237.24,0,430.26,193,430.26,430.24v571.9C1671,1483.19,1477.97,1676.19,1240.74,1676.19z M668.87,378.57
				c-162.94,0-295.49,132.54-295.49,295.48v571.9c0,162.94,132.55,295.49,295.49,295.49h571.87
				c162.95,0,295.51-132.54,295.51-295.49v-571.9c0-162.94-132.56-295.48-295.51-295.48H668.87z"/>
		</g>
	</g>
</g>
</svg>
