<?xml version="1.0" encoding="utf-8"?>
<!-- Generator: Adobe Illustrator 27.2.0, SVG Export Plug-In . SVG Version: 6.00 Build 0)  -->
<svg version="1.1" id="Capa_1" xmlns="http://www.w3.org/2000/svg" xmlns:xlink="http://www.w3.org/1999/xlink" x="0px" y="0px"
	 viewBox="0 0 1920 1920" style="enable-background:new 0 0 1920 1920;" xml:space="preserve">
<style type="text/css">
	.st0{fill:#283350;}
</style>
<path class="st0" d="M1581.95,820.1c-11.98,1.16-24.01,1.77-36.05,1.83c-132.03,0.02-255.18-66.54-327.5-177v602.72
	c0,246.02-199.45,445.46-445.46,445.46c-246.02,0-445.46-199.44-445.46-445.46c0-246.03,199.44-445.47,445.46-445.47l0,0
	c9.3,0,18.39,0.84,27.53,1.41v219.52c-9.14-1.1-18.13-2.77-27.53-2.77c-125.57,0-227.36,101.79-227.36,227.35
	c0,125.57,101.79,227.36,227.36,227.36c125.59,0,236.5-98.95,236.5-224.53l2.19-1023.62h210.01
	c19.8,188.33,171.66,335.43,360.52,349.24V820.1"/>
</svg>
